<?xml version="1.0" encoding="UTF-8" standalone="no"?>
<svg
   class="svg-icon"
   style="width: 1em; height: 1em;vertical-align: middle;fill: currentColor;overflow: hidden;"
   viewBox="0 0 1024 1024"
   version="1.1"
   id="svg7"
   sodipodi:docname="bell.svg"
   inkscape:version="1.4.3 (0d15f75, 2025-12-25)"
   xmlns:inkscape="http://www.inkscape.org/namespaces/inkscape"
   xmlns:sodipodi="http://sodipodi.sourceforge.net/DTD/sodipodi-0.dtd"
   xmlns:xlink="http://www.w3.org/1999/xlink"
   xmlns="http://www.w3.org/2000/svg"
   xmlns:svg="http://www.w3.org/2000/svg">
  <defs
     id="defs7">
    <linearGradient
       id="linearGradient5"
       inkscape:collect="always">
      <stop
         style="stop-color:#abd2fa;stop-opacity:1;"
         offset="0.28462711"
         id="stop5" />
      <stop
         style="stop-color:#26547c;stop-opacity:1;"
         offset="1"
         id="stop6" />
    </linearGradient>
    <linearGradient
       inkscape:collect="always"
       xlink:href="#linearGradient5"
       id="linearGradient6"
       x1="263.04819"
       y1="460.24429"
       x2="760.95166"
       y2="460.24429"
       gradientUnits="userSpaceOnUse" />
  </defs>
  <sodipodi:namedview
     id="namedview7"
     pagecolor="#ffffff"
     bordercolor="#000000"
     borderopacity="0.25"
     inkscape:showpageshadow="2"
     inkscape:pageopacity="0.0"
     inkscape:pagecheckerboard="0"
     inkscape:deskcolor="#d1d1d1"
     inkscape:zoom="0.34934163"
     inkscape:cx="135.97005"
     inkscape:cy="379.28488"
     inkscape:window-width="1512"
     inkscape:window-height="840"
     inkscape:window-x="0"
     inkscape:window-y="33"
     inkscape:window-maximized="0"
     inkscape:current-layer="svg7" />
  <circle
     style="overflow:hidden;fill:#ffffff;fill-opacity:1;stroke-width:0.377953"
     id="path1"
     cx="512"
     cy="512"
     r="512" />
  <path
     style="stroke-width:1;fill:url(#linearGradient6);fill-opacity:1"
     d="M 554.0315,279.84797 C 560.48998,281.51751 566.77273,283.58247 572.87973,285.99891 581.84252,289.55767 590.45383,293.81939 598.71366,298.78407 599.02121,299.00375 599.37269,299.17949 599.68024,299.39916 607.58858,304.27598 614.96971,309.63608 621.73574,315.43553 628.85325,321.54253 635.44354,328.26463 641.59447,335.64575 L 641.63841,335.68969 V 335.68969 C 647.65754,342.939 653.01764,350.71555 657.76265,358.93144 662.50766,367.19127 666.59363,375.80258 669.97665,384.6775 V 384.6775 C 673.44754,393.85997 676.03972,403.21818 677.79713,412.84 679.5106,422.50576 680.38931,432.39119 680.38931,442.54024 680.38931,462.57472 680.38931,473.42672 680.38931,474.74478 680.43324,485.02563 680.47718,495.08681 680.56505,504.88437 V 504.97224 504.97224 C 680.60898,513.84716 681.18014,522.76602 682.27852,531.68488 683.3769,540.51586 684.95857,549.0393 687.02353,557.2552 V 557.2552 C 689.08849,565.33929 691.90034,573.15976 695.37123,580.62876 698.97392,588.31743 703.36745,595.87429 708.50787,603.21148 H 708.55181 C 713.6483,610.41686 720.01891,617.57831 727.66364,624.60795 735.57199,631.85727 744.71053,639.01872 755.16712,645.96049 761.14231,649.95859 762.76792,658.08662 758.72587,664.06181 756.22156,667.79631 752.09165,669.86127 747.87386,669.86127 V 669.9052 H 629.90769 512.02939 394.06322 276.14099 C 268.89167,669.9052 263.04828,664.06181 263.04828,656.8125 263.04828,652.06749 265.59653,647.89364 269.37496,645.609 279.96336,638.44756 289.05795,631.33004 296.65875,624.3004 304.21562,617.3147 310.5423,610.15325 315.63879,602.77213 315.77059,602.55245 315.94633,602.33277 316.12207,602.15703 321.04282,594.95165 325.26061,587.61446 328.73149,580.14547 332.29025,572.54467 335.14604,564.72419 337.25493,556.68404 337.29887,556.5083 337.3428,556.33256 337.38674,556.20075 339.40776,548.38028 340.9455,540.12045 341.99994,531.4652 343.05439,522.76602 343.62555,513.75929 343.62555,504.48895 V 442.54024 C 343.62555,432.56693 344.50425,422.6815 346.3056,412.79607 348.10694,402.95457 350.69912,393.50849 354.17001,384.50176 357.59696,375.49503 361.72687,366.83979 366.51582,358.57996 371.26082,350.36406 376.7088,342.58752 382.8158,335.2064 L 382.90367,335.11853 V 335.11853 C 388.96673,327.86921 395.64489,321.10318 402.89421,314.90831 410.05566,308.80131 417.78826,303.22153 426.09203,298.25685 434.48366,293.24823 443.18284,289.03044 452.14564,285.60349 458.38444,283.23099 464.84293,281.2539 471.43321,279.6283 473.67391,271.76389 477.54022,265.39327 483.03212,260.51646 490.58899,253.79436 500.51836,250.45528 512.86416,250.58709 525.07817,250.67496 534.9636,254.05798 542.43259,260.78007 547.88057,265.70082 551.7908,272.0275 554.0315,279.84797 Z"
     id="path5" />
  <path
     style="stroke-width:1;fill:#77a1c9;fill-opacity:1"
     d="M 585.56872,712.61027 C 583.94311,721.13371 581.08732,728.95419 576.95741,736.11564 572.69569,743.45283 567.11591,750.08705 560.26201,755.8865 553.36417,761.68596 545.89518,766.07948 537.76716,769.02315 529.63913,771.96681 521.02782,773.41667 511.93322,773.41667 502.79469,773.41667 494.18338,771.92287 486.09929,769.02315 478.0152,766.07948 470.50227,761.72989 463.64837,755.8865 456.75054,750.04311 451.2147,743.45283 446.95298,736.11564 442.69126,728.77845 439.79153,720.69436 438.20986,711.81944 437.41902,707.51378 440.31875,703.38387 444.62441,702.59304 444.75621,702.59304 446.03034,702.46123 446.03034,702.46123 H 577.92398 C 582.31751,702.46123 585.9202,706.01999 585.9202,710.45745 585.87626,711.20435 585.74446,711.90731 585.56872,712.61027 Z"
     id="path1-8" />
</svg>
