<?xml version="1.0" encoding="UTF-8" standalone="no"?>
<svg
   class="svg-icon"
   style="width: 1em; height: 1em;vertical-align: middle;fill: currentColor;overflow: hidden;"
   viewBox="0 0 1024 1024"
   version="1.1"
   id="svg7"
   sodipodi:docname="help.svg"
   inkscape:version="1.4.3 (0d15f75, 2025-12-25)"
   xmlns:inkscape="http://www.inkscape.org/namespaces/inkscape"
   xmlns:sodipodi="http://sodipodi.sourceforge.net/DTD/sodipodi-0.dtd"
   xmlns="http://www.w3.org/2000/svg"
   xmlns:svg="http://www.w3.org/2000/svg">
  <defs
     id="defs7">
    <inkscape:path-effect
       effect="fillet_chamfer"
       id="path-effect2"
       is_visible="true"
       lpeversion="1"
       nodesatellites_param="F,0,0,1,0,0,0,1 @ F,0,0,1,0,0,0,1 @ F,0,0,1,0,0,0,1 @ F,0,0,1,0,0,0,1 @ F,0,0,1,0,0,0,1 @ F,0,0,1,0,0,0,1 @ F,0,0,1,0,0,0,1 @ F,0,0,1,0,0,0,1 @ F,0,0,1,0,0,0,1 @ F,0,0,1,0,4.8092314,0,1 @ F,0,0,1,0,5.52,0,1 @ F,0,0,1,0,0,0,1 @ F,0,0,1,0,0,0,1 @ F,0,0,1,0,0,0,1 @ F,0,0,1,0,0,0,1 @ F,0,0,1,0,0,0,1 @ F,0,0,1,0,0,0,1 @ F,0,0,1,0,0,0,1 @ F,0,0,1,0,0,0,1 @ F,0,0,1,0,0,0,1 @ F,0,0,1,0,4.6934083,0,1 @ F,0,0,1,0,6.3333202,0,1 @ F,0,0,1,0,0,0,1 | F,0,0,1,0,0,0,1 @ F,0,0,1,0,0,0,1 @ F,0,0,1,0,0,0,1 @ F,0,0,1,0,0,0,1 @ F,0,0,1,0,0,0,1 @ F,0,0,1,0,0,0,1 @ F,0,0,1,0,0,0,1 @ F,0,0,1,0,0,0,1"
       radius="0"
       unit="px"
       method="auto"
       mode="F"
       chamfer_steps="1"
       flexible="false"
       use_knot_distance="true"
       apply_no_radius="true"
       apply_with_radius="true"
       only_selected="false"
       hide_knots="false" />
    <rect
       x="323.12295"
       y="339.90856"
       width="302.14094"
       height="440.62221"
       id="rect2" />
    <rect
       x="341.70632"
       y="345.211"
       width="348.71568"
       height="497.66459"
       id="rect1" />
  </defs>
  <sodipodi:namedview
     id="namedview7"
     pagecolor="#ffffff"
     bordercolor="#000000"
     borderopacity="0.25"
     inkscape:showpageshadow="2"
     inkscape:pageopacity="0.0"
     inkscape:pagecheckerboard="0"
     inkscape:deskcolor="#d1d1d1"
     inkscape:zoom="0.34464163"
     inkscape:cx="560.00199"
     inkscape:cy="937.20541"
     inkscape:window-width="1568"
     inkscape:window-height="919"
     inkscape:window-x="1683"
     inkscape:window-y="134"
     inkscape:window-maximized="0"
     inkscape:current-layer="svg7" />
  <path
     id="path1"
     style="overflow:hidden;fill:#26547c;fill-opacity:1;stroke:none;stroke-width:60;stroke-dasharray:none;stroke-opacity:1"
     d="M 512,17.409389 A 494.59061,494.59058 0 0 0 17.40939,512 494.59061,494.59058 0 0 0 512,1006.5906 494.59061,494.59058 0 0 0 1006.5906,512 494.59061,494.59058 0 0 0 512,17.409389 Z M 509.78312,236.17004 C 544.38211,236.17004 573.5993,242.06303 597.43416,253.85231 621.52531,265.38532 639.84918,280.50738 652.40733,299.21645 664.96548,317.66925 671.24428,337.53067 671.24428,358.80264 671.24428,383.40636 666.50303,403.52499 657.02035,419.1586 647.53766,434.79222 635.8765,447.99093 622.03691,458.75506 608.19731,469.2629 594.23077,479.51511 580.13488,489.51038 566.29529,499.24935 554.63413,510.52659 545.15145,523.34103 535.66876,535.89919 530.92751,552.173 530.92751,572.16352 A 22.896958,22.896958 0 0 1 507.81716,594.84559 H 475.18456 A 26.52589,26.52589 0 0 1 448.65737,568.32028 C 448.65737,542.94769 453.0147,522.05935 461.72852,505.65687 470.69863,488.9981 481.84728,475.02967 495.17429,463.75297 508.50131,452.47626 521.70002,442.35265 534.77075,433.38253 548.09777,424.15614 559.11781,414.28973 567.83163,403.78189 576.80174,393.27404 581.28767,380.45925 581.28767,365.33821 581.28767,346.11656 573.72664,331.5089 558.60559,321.51363 543.48456,311.26208 524.51957,306.13693 501.70987,306.13692 483.76965,306.13692 465.7011,310.36566 447.50459,318.82318 435.30585,324.49302 423.79807,332.35091 412.9815,342.39766 403.86125,350.86883 389.48866,352.69302 379.57159,345.15604 L 364.09487,333.39238 C 350.71269,323.22192 348.56849,304.41522 360.92331,293.03369 377.71461,277.5652 395.93933,265.27354 415.59649,256.15977 444.04455,242.83275 475.44042,236.17004 509.78312,236.17004 Z M 491.32917,671.34804 C 507.98795,671.34804 521.95637,677.11432 533.23308,688.64732 544.50978,699.92403 550.14746,713.50665 550.14746,729.39656 550.14746,745.54275 544.50978,759.38257 533.23308,770.91558 521.95637,782.19228 507.98795,787.82996 491.32917,787.82996 475.18298,787.82996 461.47175,782.19228 450.19504,770.91558 439.17463,759.38257 433.66554,745.54275 433.66554,729.39656 433.66554,713.50665 439.17463,699.92403 450.19504,688.64732 461.47175,677.11432 475.18298,671.34804 491.32917,671.34804 Z" />
</svg>
