<?xml version="1.0" encoding="UTF-8" standalone="no"?>
<svg
   class="svg-icon"
   style="overflow:hidden;fill:currentColor"
   viewBox="0 0 5240.0547 1024"
   version="1.1"
   id="svg7"
   sodipodi:docname="logo_full.svg"
   inkscape:version="1.4.3 (0d15f75, 2025-12-25)"
   xml:space="preserve"
   width="5240.0547"
   height="1024"
   xmlns:inkscape="http://www.inkscape.org/namespaces/inkscape"
   xmlns:sodipodi="http://sodipodi.sourceforge.net/DTD/sodipodi-0.dtd"
   xmlns:xlink="http://www.w3.org/1999/xlink"
   xmlns="http://www.w3.org/2000/svg"
   xmlns:svg="http://www.w3.org/2000/svg"><defs
     id="defs7"><rect
       x="-59.667194"
       y="-905.85651"
       width="4301.4624"
       height="450.21609"
       id="rect1" /><linearGradient
       id="linearGradient8"
       inkscape:collect="always"><stop
         style="stop-color:#283d2a;stop-opacity:1;"
         offset="0"
         id="stop8" /><stop
         style="stop-color:#408471;stop-opacity:1;"
         offset="1"
         id="stop9" /></linearGradient><linearGradient
       id="linearGradient6"
       inkscape:collect="always"><stop
         style="stop-color:#a6d19a;stop-opacity:1;"
         offset="0"
         id="stop6" /><stop
         style="stop-color:#517758;stop-opacity:1;"
         offset="1"
         id="stop7" /></linearGradient><linearGradient
       id="linearGradient4"
       inkscape:collect="always"><stop
         style="stop-color:#089abd;stop-opacity:1;"
         offset="0"
         id="stop4" /><stop
         style="stop-color:#94e0f5;stop-opacity:1;"
         offset="1"
         id="stop5" /></linearGradient><inkscape:path-effect
       effect="fillet_chamfer"
       id="path-effect9"
       is_visible="true"
       lpeversion="1"
       nodesatellites_param="F,0,0,1,0,78.056254,0,1 @ F,0,0,1,0,86.813522,0,1 @ F,0,0,1,0,98.88281,0,1 @ F,0,0,1,0,83.026872,0,1"
       radius="0"
       unit="px"
       method="auto"
       mode="F"
       chamfer_steps="1"
       flexible="false"
       use_knot_distance="true"
       apply_no_radius="true"
       apply_with_radius="true"
       only_selected="false"
       hide_knots="false" /><inkscape:path-effect
       effect="fillet_chamfer"
       id="path-effect7"
       is_visible="true"
       lpeversion="1"
       nodesatellites_param="F,0,0,1,0,78.056254,0,1 @ F,0,0,1,0,86.813522,0,1 @ F,0,0,1,0,98.88281,0,1 @ F,0,0,1,0,83.026872,0,1"
       radius="0"
       unit="px"
       method="auto"
       mode="F"
       chamfer_steps="1"
       flexible="false"
       use_knot_distance="true"
       apply_no_radius="true"
       apply_with_radius="true"
       only_selected="false"
       hide_knots="false" /><inkscape:path-effect
       effect="fillet_chamfer"
       id="path-effect6"
       is_visible="true"
       lpeversion="1"
       nodesatellites_param="F,0,0,1,0,15.347273,0,1 @ F,0,0,1,0,16.628794,0,1 @ F,0,0,1,0,15.241253,0,1 @ F,0,0,1,0,15.269697,0,1"
       radius="0"
       unit="px"
       method="auto"
       mode="F"
       chamfer_steps="1"
       flexible="false"
       use_knot_distance="true"
       apply_no_radius="true"
       apply_with_radius="true"
       only_selected="false"
       hide_knots="false" /><inkscape:path-effect
       effect="fillet_chamfer"
       id="path-effect5"
       is_visible="true"
       lpeversion="1"
       nodesatellites_param="F,0,0,1,0,13.726744,0,1 @ F,0,0,1,0,14.012052,0,1 @ F,0,0,1,0,14.578927,0,1 @ F,0,0,1,0,13.382377,0,1"
       radius="0"
       unit="px"
       method="auto"
       mode="F"
       chamfer_steps="1"
       flexible="false"
       use_knot_distance="true"
       apply_no_radius="true"
       apply_with_radius="true"
       only_selected="false"
       hide_knots="false" /><inkscape:path-effect
       effect="fillet_chamfer"
       id="path-effect4"
       is_visible="true"
       lpeversion="1"
       nodesatellites_param="F,0,0,1,0,0,0,1 @ F,0,0,1,0,0,0,1 @ F,0,0,1,0,0,0,1 @ F,0,0,1,0,0,0,1"
       radius="0"
       unit="px"
       method="auto"
       mode="F"
       chamfer_steps="1"
       flexible="false"
       use_knot_distance="true"
       apply_no_radius="true"
       apply_with_radius="true"
       only_selected="false"
       hide_knots="false" /><inkscape:path-effect
       effect="fillet_chamfer"
       id="path-effect3"
       is_visible="true"
       lpeversion="1"
       nodesatellites_param="F,0,0,1,0,0,0,1 @ F,0,0,1,0,0,0,1 @ F,0,0,1,0,0,0,1 @ F,0,0,1,0,0,0,1"
       radius="0"
       unit="px"
       method="auto"
       mode="F"
       chamfer_steps="1"
       flexible="false"
       use_knot_distance="true"
       apply_no_radius="true"
       apply_with_radius="true"
       only_selected="false"
       hide_knots="false" /><inkscape:path-effect
       effect="fillet_chamfer"
       id="path-effect2"
       is_visible="true"
       lpeversion="1"
       nodesatellites_param="F,0,0,1,0,53.446373,0,1 @ F,0,0,1,0,48.89029,0,1 @ F,0,0,1,0,0,0,1 @ F,0,0,1,0,0,0,1"
       radius="0"
       unit="px"
       method="auto"
       mode="F"
       chamfer_steps="1"
       flexible="false"
       use_knot_distance="true"
       apply_no_radius="true"
       apply_with_radius="true"
       only_selected="false"
       hide_knots="false" /><inkscape:path-effect
       effect="fillet_chamfer"
       id="path-effect5-2"
       is_visible="true"
       lpeversion="1"
       nodesatellites_param="F,0,0,1,0,13.726744,0,1 @ F,0,0,1,0,22.240821,0,1 @ F,0,0,1,0,14.578927,0,1 @ F,0,0,1,0,13.382377,0,1"
       radius="0"
       unit="px"
       method="auto"
       mode="F"
       chamfer_steps="1"
       flexible="false"
       use_knot_distance="true"
       apply_no_radius="true"
       apply_with_radius="true"
       only_selected="false"
       hide_knots="false" /><linearGradient
       inkscape:collect="always"
       xlink:href="#linearGradient4"
       id="linearGradient5"
       x1="529.63263"
       y1="598.95459"
       x2="589.22693"
       y2="65.369507"
       gradientUnits="userSpaceOnUse" /><linearGradient
       inkscape:collect="always"
       xlink:href="#linearGradient6"
       id="linearGradient7"
       x1="651.34314"
       y1="323.05505"
       x2="883.29004"
       y2="852.68768"
       gradientUnits="userSpaceOnUse" /><linearGradient
       inkscape:collect="always"
       xlink:href="#linearGradient8"
       id="linearGradient9"
       x1="343.98077"
       y1="980.25739"
       x2="401.83426"
       y2="438.7673"
       gradientUnits="userSpaceOnUse" /></defs><sodipodi:namedview
     id="namedview7"
     pagecolor="#ffffff"
     bordercolor="#000000"
     borderopacity="0.25"
     inkscape:showpageshadow="2"
     inkscape:pageopacity="0.0"
     inkscape:pagecheckerboard="0"
     inkscape:deskcolor="#d1d1d1"
     inkscape:zoom="0.080250872"
     inkscape:cx="2753.8642"
     inkscape:cy="1439.2367"
     inkscape:window-width="1512"
     inkscape:window-height="848"
     inkscape:window-x="0"
     inkscape:window-y="33"
     inkscape:window-maximized="0"
     inkscape:current-layer="svg7" /><circle
     style="overflow:hidden;fill:url(#linearGradient5);fill-opacity:1;stroke:none;stroke-width:0;stroke-dasharray:none;stroke-opacity:1"
     id="path1"
     cx="512"
     cy="512"
     r="512" /><path
     id="path9"
     style="overflow:hidden;fill:url(#linearGradient7);fill-opacity:1;stroke:none;stroke-width:50;stroke-dasharray:none;stroke-opacity:1"
     d="M 655.48047,500.33398 655.70508,500.52734 725.9082,976.27148 A 512,512 0 0 0 1009.7695,631.86914 C 912.58279,536.13395 652.46036,289.94223 623.67578,262.71094 Z" /><path
     id="path22"
     style="overflow:hidden;fill:#8ace75;fill-opacity:1;stroke:none;stroke-width:50;stroke-dasharray:none;stroke-opacity:1"
     d="M 621.39844,260.55664 620.7168,260.99805 439.63281,634.44531 346.13672,687.60938 217.80859,561.11328 155.47656,528.11523 29.445312,683.125 A 512,512 0 0 0 29.445312,683.12695 512,512 0 0 0 31.986328,690.13086 C 46.040808,671.5889 60.505622,654.09704 75.015625,638.86719 106.58173,605.73502 139.33541,584.10882 161.18945,579.41602 164.29757,578.74859 165.8633,578.81482 169.05664,580.00195 172.24997,581.18909 177.03032,584.02319 183.51562,589.36719 195.86987,599.54728 211.74288,618.55839 228.15625,638.94531 244.56082,659.32129 262.06465,681.72182 284.53125,699.62109 307.08588,717.59048 339.03643,731.46726 373.33203,722.95508 H 373.67578 L 375.63867,722.41016 H 375.64062 C 454.9053,700.45018 502.14251,617.58759 537.30859,546.88086 558.17509,504.92563 573.91121,464.57052 583.31641,438.50195 L 655.48047,500.33398 623.67578,262.71094 C 622.56285,261.65806 621.79692,260.93351 621.39844,260.55664 Z" /><path
     id="path2"
     style="overflow:hidden;fill:url(#linearGradient9);fill-opacity:1;stroke:none;stroke-width:20;stroke-dasharray:none;stroke-opacity:1"
     d="M 31.734687,690.46289 C 106.16199,890.60115 296.98134,1023.5347 510.51008,1024 584.91979,1024 658.43532,1007.7811 725.93781,976.47265 L 655.70539,500.52734 583.31672,438.50195 C 573.91152,464.57052 558.17541,504.92563 537.30891,546.88086 502.14283,617.58759 454.90561,700.45018 375.64094,722.41016 H 375.63899 L 373.6761,722.95508 H 373.33235 C 339.03675,731.46726 307.08619,717.59048 284.53156,699.62109 262.06496,681.72182 244.56113,659.32129 228.15656,638.94531 211.74319,618.55839 195.87019,599.54728 183.51594,589.36719 177.03063,584.02319 172.25029,581.18909 169.05696,580.00195 165.86362,578.81482 164.29789,578.74859 161.18977,579.41602 139.33573,584.10882 106.58204,605.73502 75.015937,638.86719 60.419267,654.18801 45.868167,671.7976 31.734687,690.46289 Z"
     sodipodi:nodetypes="cccccsccccssssssc" /><path
     id="path8"
     style="baseline-shift:baseline;display:inline;overflow:hidden;opacity:1;vector-effect:none;fill:#ffffff;stroke:none;enable-background:accumulate;stop-color:#000000;stop-opacity:1"
     d="M 623.22882,259.36884 411.81476,396.44695 509.67609,408.31023 C 501.32377,431.82346 486.10982,471.67249 465.68195,512.74578 449.77807,544.72291 429.87415,576.66808 409.63312,601.38836 389.39209,626.10863 368.15236,642.96206 354.28351,646.80437 351.01613,647.70959 350.09556,647.66883 347.56671,646.82976 345.03786,645.9907 340.70747,643.57935 334.38312,638.5407 322.61108,629.16187 306.79295,610.54063 290.47101,590.26726 274.14043,569.9832 256.62395,547.43917 234.39093,529.11883 211.72585,510.44246 179.89005,495.06551 144.39679,502.68719 95.560804,513.17394 54.351409,546.0698 17.096012,585.17351 13.187217,589.27623 9.3175152,593.46704 5.4885892,597.73601 10.903226,630.19318 18.346082,662.70567 30.963199,692.87273 45.332779,673.83383 60.159048,655.95107 75.015933,640.35711 106.58203,607.22494 139.33572,585.59874 161.18976,580.90594 164.29788,580.23851 165.86361,580.30474 169.05695,581.49187 172.25028,582.67901 177.03062,585.51311 183.51593,590.85711 195.87018,601.0372 211.74318,620.04831 228.15655,640.43523 244.56112,660.81121 262.06495,683.21174 284.53155,701.11101 307.08618,719.0804 339.03674,732.95718 373.33234,724.445 H 373.67609 L 375.63898,723.90008 H 375.64093 C 454.9056,701.9401 502.14282,619.07751 537.3089,548.37078 558.1754,506.41555 573.91151,466.06044 583.31671,439.99187 L 655.70538,502.01726 Z"
     sodipodi:nodetypes="cccsssssssssccssssssccccsccc" /><text
     xml:space="preserve"
     id="text1"
     style="font-weight:bold;font-size:666.667px;line-height:0px;font-family:'Minion Pro';-inkscape-font-specification:'Minion Pro Bold';writing-mode:lr-tb;direction:ltr;white-space:pre;shape-inside:url(#rect1);shape-padding:0;fill:#26547c;stroke:#26547c;stroke-width:0.7;paint-order:fill markers stroke"
     transform="translate(1384.657,1444.4736)"><tspan
       x="-59.667969"
       y="-695.66624"
       id="tspan3"><tspan
         style="font-family:Helvetica;-inkscape-font-specification:'Helvetica Bold'"
         id="tspan2">Lernmonitor</tspan></tspan></text></svg>
