<?xml version="1.0" encoding="UTF-8" standalone="no"?>
<svg
   class="svg-icon"
   style="overflow:hidden;fill:currentColor"
   viewBox="0 0 1074 1074"
   version="1.1"
   id="svg7"
   sodipodi:docname="parents_reversed.svg"
   inkscape:version="1.4.3 (0d15f75, 2025-12-25)"
   xml:space="preserve"
   width="1074"
   height="1074"
   xmlns:inkscape="http://www.inkscape.org/namespaces/inkscape"
   xmlns:sodipodi="http://sodipodi.sourceforge.net/DTD/sodipodi-0.dtd"
   xmlns:xlink="http://www.w3.org/1999/xlink"
   xmlns="http://www.w3.org/2000/svg"
   xmlns:svg="http://www.w3.org/2000/svg"><defs
     id="defs7"><inkscape:path-effect
       effect="fillet_chamfer"
       id="path-effect9"
       is_visible="true"
       lpeversion="1"
       nodesatellites_param="F,0,0,1,0,78.056254,0,1 @ F,0,0,1,0,86.813522,0,1 @ F,0,0,1,0,98.88281,0,1 @ F,0,0,1,0,83.026872,0,1"
       radius="0"
       unit="px"
       method="auto"
       mode="F"
       chamfer_steps="1"
       flexible="false"
       use_knot_distance="true"
       apply_no_radius="true"
       apply_with_radius="true"
       only_selected="false"
       hide_knots="false" /><inkscape:path-effect
       effect="fillet_chamfer"
       id="path-effect7"
       is_visible="true"
       lpeversion="1"
       nodesatellites_param="F,0,0,1,0,78.056254,0,1 @ F,0,0,1,0,86.813522,0,1 @ F,0,0,1,0,98.88281,0,1 @ F,0,0,1,0,83.026872,0,1"
       radius="0"
       unit="px"
       method="auto"
       mode="F"
       chamfer_steps="1"
       flexible="false"
       use_knot_distance="true"
       apply_no_radius="true"
       apply_with_radius="true"
       only_selected="false"
       hide_knots="false" /><inkscape:path-effect
       effect="fillet_chamfer"
       id="path-effect6"
       is_visible="true"
       lpeversion="1"
       nodesatellites_param="F,0,0,1,0,15.347273,0,1 @ F,0,0,1,0,16.628794,0,1 @ F,0,0,1,0,15.241253,0,1 @ F,0,0,1,0,15.269697,0,1"
       radius="0"
       unit="px"
       method="auto"
       mode="F"
       chamfer_steps="1"
       flexible="false"
       use_knot_distance="true"
       apply_no_radius="true"
       apply_with_radius="true"
       only_selected="false"
       hide_knots="false" /><inkscape:path-effect
       effect="fillet_chamfer"
       id="path-effect5"
       is_visible="true"
       lpeversion="1"
       nodesatellites_param="F,0,0,1,0,13.726744,0,1 @ F,0,0,1,0,14.012052,0,1 @ F,0,0,1,0,14.578927,0,1 @ F,0,0,1,0,13.382377,0,1"
       radius="0"
       unit="px"
       method="auto"
       mode="F"
       chamfer_steps="1"
       flexible="false"
       use_knot_distance="true"
       apply_no_radius="true"
       apply_with_radius="true"
       only_selected="false"
       hide_knots="false" /><inkscape:path-effect
       effect="fillet_chamfer"
       id="path-effect4"
       is_visible="true"
       lpeversion="1"
       nodesatellites_param="F,0,0,1,0,0,0,1 @ F,0,0,1,0,0,0,1 @ F,0,0,1,0,0,0,1 @ F,0,0,1,0,0,0,1"
       radius="0"
       unit="px"
       method="auto"
       mode="F"
       chamfer_steps="1"
       flexible="false"
       use_knot_distance="true"
       apply_no_radius="true"
       apply_with_radius="true"
       only_selected="false"
       hide_knots="false" /><inkscape:path-effect
       effect="fillet_chamfer"
       id="path-effect3"
       is_visible="true"
       lpeversion="1"
       nodesatellites_param="F,0,0,1,0,0,0,1 @ F,0,0,1,0,0,0,1 @ F,0,0,1,0,0,0,1 @ F,0,0,1,0,0,0,1"
       radius="0"
       unit="px"
       method="auto"
       mode="F"
       chamfer_steps="1"
       flexible="false"
       use_knot_distance="true"
       apply_no_radius="true"
       apply_with_radius="true"
       only_selected="false"
       hide_knots="false" /><inkscape:path-effect
       effect="fillet_chamfer"
       id="path-effect2"
       is_visible="true"
       lpeversion="1"
       nodesatellites_param="F,0,0,1,0,53.446373,0,1 @ F,0,0,1,0,48.89029,0,1 @ F,0,0,1,0,0,0,1 @ F,0,0,1,0,0,0,1"
       radius="0"
       unit="px"
       method="auto"
       mode="F"
       chamfer_steps="1"
       flexible="false"
       use_knot_distance="true"
       apply_no_radius="true"
       apply_with_radius="true"
       only_selected="false"
       hide_knots="false" /><inkscape:path-effect
       effect="fillet_chamfer"
       id="path-effect5-2"
       is_visible="true"
       lpeversion="1"
       nodesatellites_param="F,0,0,1,0,13.726744,0,1 @ F,0,0,1,0,22.240821,0,1 @ F,0,0,1,0,14.578927,0,1 @ F,0,0,1,0,13.382377,0,1"
       radius="0"
       unit="px"
       method="auto"
       mode="F"
       chamfer_steps="1"
       flexible="false"
       use_knot_distance="true"
       apply_no_radius="true"
       apply_with_radius="true"
       only_selected="false"
       hide_knots="false" /><linearGradient
       inkscape:collect="always"
       xlink:href="#linearGradient3"
       id="linearGradient4"
       x1="0"
       y1="512"
       x2="1024"
       y2="512"
       gradientUnits="userSpaceOnUse"
       gradientTransform="translate(24.999994,25.000002)" /><linearGradient
       id="linearGradient3"
       inkscape:collect="always"><stop
         style="stop-color:#ffffff;stop-opacity:1;"
         offset="0"
         id="stop3" /><stop
         style="stop-color:#ffffff;stop-opacity:0;"
         offset="1"
         id="stop4" /></linearGradient><linearGradient
       inkscape:collect="always"
       xlink:href="#linearGradient5"
       id="linearGradient6"
       x1="942.27911"
       y1="889.30365"
       x2="131.72102"
       y2="184.69624"
       gradientUnits="userSpaceOnUse"
       gradientTransform="translate(-6.1828125e-6)" /><linearGradient
       id="linearGradient5"
       inkscape:collect="always"><stop
         style="stop-color:#9e4770;stop-opacity:1;"
         offset="0"
         id="stop5" /><stop
         style="stop-color:#b76276;stop-opacity:1;"
         offset="1"
         id="stop6" /></linearGradient><linearGradient
       inkscape:collect="always"
       xlink:href="#linearGradient1"
       id="linearGradient2"
       x1="512"
       y1="168.97144"
       x2="512"
       y2="855.02856"
       gradientUnits="userSpaceOnUse"
       gradientTransform="translate(24.999999,24.999995)" /><linearGradient
       id="linearGradient1"
       inkscape:collect="always"><stop
         style="stop-color:#9e4770;stop-opacity:1;"
         offset="0"
         id="stop1" /><stop
         style="stop-color:#75428b;stop-opacity:1;"
         offset="1"
         id="stop2" /></linearGradient></defs><sodipodi:namedview
     id="namedview7"
     pagecolor="#ffffff"
     bordercolor="#000000"
     borderopacity="0.25"
     inkscape:showpageshadow="2"
     inkscape:pageopacity="0.0"
     inkscape:pagecheckerboard="0"
     inkscape:deskcolor="#d1d1d1"
     inkscape:zoom="0.37943621"
     inkscape:cx="326.80065"
     inkscape:cy="436.17345"
     inkscape:window-width="1512"
     inkscape:window-height="840"
     inkscape:window-x="-82"
     inkscape:window-y="252"
     inkscape:window-maximized="0"
     inkscape:current-layer="svg7" /><circle
     style="overflow:hidden;fill:url(#linearGradient4);display:inline;fill-opacity:1;stroke:url(#linearGradient6);stroke-width:50;stroke-dasharray:none;stroke-opacity:1"
     id="path1"
     cx="537"
     cy="537"
     r="512" /><path
     id="path2"
     style="overflow:hidden;fill:url(#linearGradient2);fill-opacity:1;stroke-width:99.9999;stroke-linecap:round;stroke-linejoin:round;paint-order:stroke fill markers"
     d="M 661.48859,262.33985 A 88.663971,88.663971 0 0 0 572.82449,351.00386 88.663971,88.663971 0 0 0 661.48859,439.66606 88.663971,88.663971 0 0 0 750.15259,351.00386 88.663971,88.663971 0 0 0 661.48859,262.33985 Z M 391.8421,309.79106 A 80.703636,80.703636 0 0 0 311.13702,390.49606 80.703636,80.703636 0 0 0 391.8421,471.19926 80.703636,80.703636 0 0 0 472.54522,390.49606 80.703636,80.703636 0 0 0 391.8421,309.79106 Z M 729.20929,459.37116 C 696.81959,459.18066 596.79329,459.75196 596.79329,459.75196 596.79329,459.75196 566.20899,456.98266 543.82649,479.75786 522.10636,501.85896 509.34014,515.76766 509.34014,515.76766 L 498.86163,504.52546 C 498.86163,504.52546 486.28681,489.47376 460.75616,489.28326 435.2255,489.09276 319.19366,489.85556 319.19366,489.85556 319.19366,489.85556 300.71289,489.85666 284.13702,506.62306 267.56114,523.38946 202.40264,594.30086 202.40264,594.30086 202.40264,594.30086 184.06287,613.07796 201.48077,631.09766 217.35766,647.52306 237.28741,634.09576 237.28741,634.09576 L 290.74053,590.35356 C 290.74053,590.35356 300.12394,580.50546 307.01006,585.92386 313.19275,590.78876 311.20733,596.72266 311.20733,596.72266 L 272.54717,811.39456 450.6878,811.66016 450.42217,766.38876 C 450.42217,766.38876 451.96526,761.50366 446.30889,757.13286 440.65251,752.76196 367.78545,681.95126 367.78546,681.95126 367.78546,681.95126 353.06712,664.26346 368.9671,645.93756 383.51432,629.17096 402.34405,639.37696 402.34405,639.37696 L 461.47881,686.42776 C 461.47881,686.42776 490.2742,711.10946 517.52764,711.10946 544.78109,711.10946 558.66549,705.96886 573.32059,696.71296 587.97579,687.45706 643.51009,641.17776 643.51009,641.17776 643.51009,641.17776 663.82929,627.65846 680.45729,646.75786 696.02619,664.64076 679.50619,682.82816 679.50619,682.82816 L 601.60189,757.64656 C 601.60189,757.64656 597.74439,759.70366 597.74439,768.44536 V 811.38286 L 748.76009,811.50196 749.02369,572.54496 C 749.02369,572.54496 747.16319,566.31126 753.21509,561.30276 758.74039,556.73016 766.74249,563.39846 766.74249,563.39846 L 835.14289,621.89066 C 835.14289,621.89066 856.48149,635.79876 872.29519,618.84186 888.10899,601.88496 874.77179,581.50006 874.77179,581.50006 L 782.55689,483.56836 C 782.55689,483.56836 761.59889,459.56176 729.20929,459.37116 Z M 524.98272,549.29696 A 70.020218,70.020218 0 0 1 595.00419,619.31836 70.020218,70.020218 0 0 1 524.98272,689.33796 70.020218,70.020218 0 0 1 454.96319,619.31836 70.020218,70.020218 0 0 1 524.98272,549.29696 Z" /></svg>
