<?xml version="1.0" encoding="UTF-8" standalone="no"?>
<svg
   class="svg-icon"
   style="width: 1em; height: 1em;vertical-align: middle;fill: currentColor;overflow: hidden;"
   viewBox="0 0 1024 1024"
   version="1.1"
   id="svg7"
   sodipodi:docname="parents.svg"
   inkscape:version="1.4.3 (0d15f75, 2025-12-25)"
   xml:space="preserve"
   xmlns:inkscape="http://www.inkscape.org/namespaces/inkscape"
   xmlns:sodipodi="http://sodipodi.sourceforge.net/DTD/sodipodi-0.dtd"
   xmlns:xlink="http://www.w3.org/1999/xlink"
   xmlns="http://www.w3.org/2000/svg"
   xmlns:svg="http://www.w3.org/2000/svg"><defs
     id="defs7"><linearGradient
       id="linearGradient1"
       inkscape:collect="always"><stop
         style="stop-color:#9e4770;stop-opacity:1;"
         offset="0"
         id="stop1" /><stop
         style="stop-color:#75428b;stop-opacity:1;"
         offset="1"
         id="stop2" /></linearGradient><inkscape:path-effect
       effect="fillet_chamfer"
       id="path-effect9"
       is_visible="true"
       lpeversion="1"
       nodesatellites_param="F,0,0,1,0,78.056254,0,1 @ F,0,0,1,0,86.813522,0,1 @ F,0,0,1,0,98.88281,0,1 @ F,0,0,1,0,83.026872,0,1"
       radius="0"
       unit="px"
       method="auto"
       mode="F"
       chamfer_steps="1"
       flexible="false"
       use_knot_distance="true"
       apply_no_radius="true"
       apply_with_radius="true"
       only_selected="false"
       hide_knots="false" /><inkscape:path-effect
       effect="fillet_chamfer"
       id="path-effect7"
       is_visible="true"
       lpeversion="1"
       nodesatellites_param="F,0,0,1,0,78.056254,0,1 @ F,0,0,1,0,86.813522,0,1 @ F,0,0,1,0,98.88281,0,1 @ F,0,0,1,0,83.026872,0,1"
       radius="0"
       unit="px"
       method="auto"
       mode="F"
       chamfer_steps="1"
       flexible="false"
       use_knot_distance="true"
       apply_no_radius="true"
       apply_with_radius="true"
       only_selected="false"
       hide_knots="false" /><inkscape:path-effect
       effect="fillet_chamfer"
       id="path-effect6"
       is_visible="true"
       lpeversion="1"
       nodesatellites_param="F,0,0,1,0,15.347273,0,1 @ F,0,0,1,0,16.628794,0,1 @ F,0,0,1,0,15.241253,0,1 @ F,0,0,1,0,15.269697,0,1"
       radius="0"
       unit="px"
       method="auto"
       mode="F"
       chamfer_steps="1"
       flexible="false"
       use_knot_distance="true"
       apply_no_radius="true"
       apply_with_radius="true"
       only_selected="false"
       hide_knots="false" /><inkscape:path-effect
       effect="fillet_chamfer"
       id="path-effect5"
       is_visible="true"
       lpeversion="1"
       nodesatellites_param="F,0,0,1,0,13.726744,0,1 @ F,0,0,1,0,14.012052,0,1 @ F,0,0,1,0,14.578927,0,1 @ F,0,0,1,0,13.382377,0,1"
       radius="0"
       unit="px"
       method="auto"
       mode="F"
       chamfer_steps="1"
       flexible="false"
       use_knot_distance="true"
       apply_no_radius="true"
       apply_with_radius="true"
       only_selected="false"
       hide_knots="false" /><inkscape:path-effect
       effect="fillet_chamfer"
       id="path-effect4"
       is_visible="true"
       lpeversion="1"
       nodesatellites_param="F,0,0,1,0,0,0,1 @ F,0,0,1,0,0,0,1 @ F,0,0,1,0,0,0,1 @ F,0,0,1,0,0,0,1"
       radius="0"
       unit="px"
       method="auto"
       mode="F"
       chamfer_steps="1"
       flexible="false"
       use_knot_distance="true"
       apply_no_radius="true"
       apply_with_radius="true"
       only_selected="false"
       hide_knots="false" /><inkscape:path-effect
       effect="fillet_chamfer"
       id="path-effect3"
       is_visible="true"
       lpeversion="1"
       nodesatellites_param="F,0,0,1,0,0,0,1 @ F,0,0,1,0,0,0,1 @ F,0,0,1,0,0,0,1 @ F,0,0,1,0,0,0,1"
       radius="0"
       unit="px"
       method="auto"
       mode="F"
       chamfer_steps="1"
       flexible="false"
       use_knot_distance="true"
       apply_no_radius="true"
       apply_with_radius="true"
       only_selected="false"
       hide_knots="false" /><inkscape:path-effect
       effect="fillet_chamfer"
       id="path-effect2"
       is_visible="true"
       lpeversion="1"
       nodesatellites_param="F,0,0,1,0,53.446373,0,1 @ F,0,0,1,0,48.89029,0,1 @ F,0,0,1,0,0,0,1 @ F,0,0,1,0,0,0,1"
       radius="0"
       unit="px"
       method="auto"
       mode="F"
       chamfer_steps="1"
       flexible="false"
       use_knot_distance="true"
       apply_no_radius="true"
       apply_with_radius="true"
       only_selected="false"
       hide_knots="false" /><inkscape:path-effect
       effect="fillet_chamfer"
       id="path-effect5-2"
       is_visible="true"
       lpeversion="1"
       nodesatellites_param="F,0,0,1,0,13.726744,0,1 @ F,0,0,1,0,22.240821,0,1 @ F,0,0,1,0,14.578927,0,1 @ F,0,0,1,0,13.382377,0,1"
       radius="0"
       unit="px"
       method="auto"
       mode="F"
       chamfer_steps="1"
       flexible="false"
       use_knot_distance="true"
       apply_no_radius="true"
       apply_with_radius="true"
       only_selected="false"
       hide_knots="false" /><linearGradient
       inkscape:collect="always"
       xlink:href="#linearGradient1"
       id="linearGradient2"
       x1="512"
       y1="168.97144"
       x2="512"
       y2="855.02856"
       gradientUnits="userSpaceOnUse" /></defs><sodipodi:namedview
     id="namedview7"
     pagecolor="#ffffff"
     bordercolor="#000000"
     borderopacity="0.25"
     inkscape:showpageshadow="2"
     inkscape:pageopacity="0.0"
     inkscape:pagecheckerboard="0"
     inkscape:deskcolor="#d1d1d1"
     inkscape:zoom="0.37943621"
     inkscape:cx="300.44576"
     inkscape:cy="826.22584"
     inkscape:window-width="1512"
     inkscape:window-height="840"
     inkscape:window-x="2"
     inkscape:window-y="316"
     inkscape:window-maximized="0"
     inkscape:current-layer="svg7" /><circle
     style="overflow:hidden;fill:#ffffff;fill-opacity:1;stroke-width:0.377953"
     id="path1"
     cx="512"
     cy="512"
     r="512" /><path
     id="path2"
     style="fill:url(#linearGradient2);fill-opacity:1;stroke-width:99.9999;stroke-linecap:round;stroke-linejoin:round;paint-order:stroke fill markers"
     d="M 636.48859,237.33985 A 88.663971,88.663971 0 0 0 547.82449,326.00386 88.663971,88.663971 0 0 0 636.48859,414.66606 88.663971,88.663971 0 0 0 725.15259,326.00386 88.663971,88.663971 0 0 0 636.48859,237.33985 Z M 366.8421,284.79106 A 80.703636,80.703636 0 0 0 286.13702,365.49606 80.703636,80.703636 0 0 0 366.8421,446.19926 80.703636,80.703636 0 0 0 447.54522,365.49606 80.703636,80.703636 0 0 0 366.8421,284.79106 Z M 704.20929,434.37116 C 671.81959,434.18066 571.79329,434.75196 571.79329,434.75196 571.79329,434.75196 541.20899,431.98266 518.82649,454.75786 497.10636,476.85896 484.34014,490.76766 484.34014,490.76766 L 473.86163,479.52546 C 473.86163,479.52546 461.28681,464.47376 435.75616,464.28326 410.2255,464.09276 294.19366,464.85556 294.19366,464.85556 294.19366,464.85556 275.71289,464.85666 259.13702,481.62306 242.56114,498.38946 177.40264,569.30086 177.40264,569.30086 177.40264,569.30086 159.06287,588.07796 176.48077,606.09766 192.35766,622.52306 212.28741,609.09576 212.28741,609.09576 L 265.74053,565.35356 C 265.74053,565.35356 275.12394,555.50546 282.01006,560.92386 288.19275,565.78876 286.20733,571.72266 286.20733,571.72266 L 247.54717,786.39456 425.6878,786.66016 425.42217,741.38876 C 425.42217,741.38876 426.96526,736.50366 421.30889,732.13286 415.65251,727.76196 342.78545,656.95126 342.78546,656.95126 342.78546,656.95126 328.06712,639.26346 343.9671,620.93756 358.51432,604.17096 377.34405,614.37696 377.34405,614.37696 L 436.47881,661.42776 C 436.47881,661.42776 465.2742,686.10946 492.52764,686.10946 519.78109,686.10946 533.66549,680.96886 548.32059,671.71296 562.97579,662.45706 618.51009,616.17776 618.51009,616.17776 618.51009,616.17776 638.82929,602.65846 655.45729,621.75786 671.02619,639.64076 654.50619,657.82816 654.50619,657.82816 L 576.60189,732.64656 C 576.60189,732.64656 572.74439,734.70366 572.74439,743.44536 V 786.38286 L 723.76009,786.50196 724.02369,547.54496 C 724.02369,547.54496 722.16319,541.31126 728.21509,536.30276 733.74039,531.73016 741.74249,538.39846 741.74249,538.39846 L 810.14289,596.89066 C 810.14289,596.89066 831.48149,610.79876 847.29519,593.84186 863.10899,576.88496 849.77179,556.50006 849.77179,556.50006 L 757.55689,458.56836 C 757.55689,458.56836 736.59889,434.56176 704.20929,434.37116 Z M 499.98272,524.29696 A 70.020218,70.020218 0 0 1 570.00419,594.31836 70.020218,70.020218 0 0 1 499.98272,664.33796 70.020218,70.020218 0 0 1 429.96319,594.31836 70.020218,70.020218 0 0 1 499.98272,524.29696 Z" /></svg>
