<?xml version="1.0" encoding="UTF-8" standalone="no"?>
<svg
   class="svg-icon"
   style="width: 1em; height: 1em;vertical-align: middle;fill: currentColor;overflow: hidden;"
   viewBox="0 0 1024 1024"
   version="1.1"
   id="svg7"
   sodipodi:docname="progress.svg"
   inkscape:version="1.4.3 (0d15f75, 2025-12-25)"
   xml:space="preserve"
   xmlns:inkscape="http://www.inkscape.org/namespaces/inkscape"
   xmlns:sodipodi="http://sodipodi.sourceforge.net/DTD/sodipodi-0.dtd"
   xmlns="http://www.w3.org/2000/svg"
   xmlns:svg="http://www.w3.org/2000/svg"><defs
     id="defs7"><inkscape:path-effect
       effect="fillet_chamfer"
       id="path-effect9"
       is_visible="true"
       lpeversion="1"
       nodesatellites_param="F,0,0,1,0,78.056254,0,1 @ F,0,0,1,0,86.813522,0,1 @ F,0,0,1,0,98.88281,0,1 @ F,0,0,1,0,83.026872,0,1"
       radius="0"
       unit="px"
       method="auto"
       mode="F"
       chamfer_steps="1"
       flexible="false"
       use_knot_distance="true"
       apply_no_radius="true"
       apply_with_radius="true"
       only_selected="false"
       hide_knots="false" /><inkscape:path-effect
       effect="fillet_chamfer"
       id="path-effect7"
       is_visible="true"
       lpeversion="1"
       nodesatellites_param="F,0,0,1,0,78.056254,0,1 @ F,0,0,1,0,86.813522,0,1 @ F,0,0,1,0,98.88281,0,1 @ F,0,0,1,0,83.026872,0,1"
       radius="0"
       unit="px"
       method="auto"
       mode="F"
       chamfer_steps="1"
       flexible="false"
       use_knot_distance="true"
       apply_no_radius="true"
       apply_with_radius="true"
       only_selected="false"
       hide_knots="false" /><inkscape:path-effect
       effect="fillet_chamfer"
       id="path-effect6"
       is_visible="true"
       lpeversion="1"
       nodesatellites_param="F,0,0,1,0,15.347273,0,1 @ F,0,0,1,0,16.628794,0,1 @ F,0,0,1,0,15.241253,0,1 @ F,0,0,1,0,15.269697,0,1"
       radius="0"
       unit="px"
       method="auto"
       mode="F"
       chamfer_steps="1"
       flexible="false"
       use_knot_distance="true"
       apply_no_radius="true"
       apply_with_radius="true"
       only_selected="false"
       hide_knots="false" /><inkscape:path-effect
       effect="fillet_chamfer"
       id="path-effect5"
       is_visible="true"
       lpeversion="1"
       nodesatellites_param="F,0,0,1,0,13.726744,0,1 @ F,0,0,1,0,14.012052,0,1 @ F,0,0,1,0,14.578927,0,1 @ F,0,0,1,0,13.382377,0,1"
       radius="0"
       unit="px"
       method="auto"
       mode="F"
       chamfer_steps="1"
       flexible="false"
       use_knot_distance="true"
       apply_no_radius="true"
       apply_with_radius="true"
       only_selected="false"
       hide_knots="false" /><inkscape:path-effect
       effect="fillet_chamfer"
       id="path-effect4"
       is_visible="true"
       lpeversion="1"
       nodesatellites_param="F,0,0,1,0,0,0,1 @ F,0,0,1,0,0,0,1 @ F,0,0,1,0,0,0,1 @ F,0,0,1,0,0,0,1"
       radius="0"
       unit="px"
       method="auto"
       mode="F"
       chamfer_steps="1"
       flexible="false"
       use_knot_distance="true"
       apply_no_radius="true"
       apply_with_radius="true"
       only_selected="false"
       hide_knots="false" /><inkscape:path-effect
       effect="fillet_chamfer"
       id="path-effect3"
       is_visible="true"
       lpeversion="1"
       nodesatellites_param="F,0,0,1,0,0,0,1 @ F,0,0,1,0,0,0,1 @ F,0,0,1,0,0,0,1 @ F,0,0,1,0,0,0,1"
       radius="0"
       unit="px"
       method="auto"
       mode="F"
       chamfer_steps="1"
       flexible="false"
       use_knot_distance="true"
       apply_no_radius="true"
       apply_with_radius="true"
       only_selected="false"
       hide_knots="false" /><inkscape:path-effect
       effect="fillet_chamfer"
       id="path-effect2"
       is_visible="true"
       lpeversion="1"
       nodesatellites_param="F,0,0,1,0,53.446373,0,1 @ F,0,0,1,0,48.89029,0,1 @ F,0,0,1,0,0,0,1 @ F,0,0,1,0,0,0,1"
       radius="0"
       unit="px"
       method="auto"
       mode="F"
       chamfer_steps="1"
       flexible="false"
       use_knot_distance="true"
       apply_no_radius="true"
       apply_with_radius="true"
       only_selected="false"
       hide_knots="false" /><inkscape:path-effect
       effect="fillet_chamfer"
       id="path-effect5-2"
       is_visible="true"
       lpeversion="1"
       nodesatellites_param="F,0,0,1,0,13.726744,0,1 @ F,0,0,1,0,22.240821,0,1 @ F,0,0,1,0,14.578927,0,1 @ F,0,0,1,0,13.382377,0,1"
       radius="0"
       unit="px"
       method="auto"
       mode="F"
       chamfer_steps="1"
       flexible="false"
       use_knot_distance="true"
       apply_no_radius="true"
       apply_with_radius="true"
       only_selected="false"
       hide_knots="false" /></defs><sodipodi:namedview
     id="namedview7"
     pagecolor="#ffffff"
     bordercolor="#000000"
     borderopacity="0.25"
     inkscape:showpageshadow="2"
     inkscape:pageopacity="0.0"
     inkscape:pagecheckerboard="0"
     inkscape:deskcolor="#d1d1d1"
     inkscape:zoom="0.3842468"
     inkscape:cx="400.78408"
     inkscape:cy="258.94816"
     inkscape:window-width="1512"
     inkscape:window-height="848"
     inkscape:window-x="227"
     inkscape:window-y="303"
     inkscape:window-maximized="0"
     inkscape:current-layer="svg7" /><circle
     style="overflow:hidden;fill:#ffffff;fill-opacity:0.82853812;stroke:none;stroke-width:0;stroke-dasharray:none;stroke-opacity:1"
     id="path1"
     cx="512"
     cy="512"
     r="512" /><path
     id="path9"
     style="overflow:hidden;fill:#d5a1ba;fill-opacity:1;stroke:none;stroke-width:50;stroke-dasharray:none;stroke-opacity:1"
     d="M 623.67578 262.71094 L 655.48047 500.33398 L 583.31641 438.50195 C 573.91121 464.57052 558.17509 504.92563 537.30859 546.88086 C 502.14251 617.58759 454.90529 700.45018 375.64062 722.41016 L 375.63867 722.41016 L 373.67578 722.95508 L 373.33203 722.95508 C 339.03643 731.46726 307.08588 717.59048 284.53125 699.62109 C 262.06465 681.72182 244.56082 659.32129 228.15625 638.94531 C 211.74288 618.55839 195.86988 599.54728 183.51562 589.36719 C 177.03032 584.02319 172.24997 581.18909 169.05664 580.00195 C 165.8633 578.81482 164.29757 578.74859 161.18945 579.41602 C 139.33541 584.10882 106.58173 605.73502 75.015625 638.86719 C 60.418955 654.18801 45.867855 671.7976 31.734375 690.46289 C 106.16168 890.60115 296.98103 1023.5347 510.50977 1024 C 584.91948 1024 658.43501 1007.7811 725.9375 976.47266 L 725.9082 976.27148 A 512 512 0 0 0 1009.7695 631.86914 C 912.58291 536.13395 652.46036 289.94223 623.67578 262.71094 z " /><path
     id="path22"
     style="overflow:hidden;fill:#8ace75;fill-opacity:1;stroke:none;stroke-width:50;stroke-dasharray:none;stroke-opacity:1"
     d="M 621.39842,260.55664 620.71678,260.99805 439.63279,634.44531 346.1367,687.60938 217.80857,561.11328 155.47654,528.11523 29.44529,683.125 A 512,512 0 0 0 29.44529,683.12695 512,512 0 0 0 31.98631,690.13086 C 46.04079,671.5889 60.5056,654.09704 75.0156,638.86719 106.58171,605.73502 139.33539,584.10882 161.18943,579.41602 164.29755,578.74859 165.86328,578.81482 169.05662,580.00195 172.24995,581.18909 177.0303,584.02319 183.5156,589.36719 195.86985,599.54728 211.74286,618.55839 228.15623,638.94531 244.5608,659.32129 262.06463,681.72182 284.53123,699.62109 307.08586,717.59048 339.03641,731.46726 373.33201,722.95508 H 373.67576 L 375.63865,722.41016 H 375.6406 C 454.90528,700.45018 502.14249,617.58759 537.30857,546.88086 558.17507,504.92563 573.91119,464.57052 583.31639,438.50195 L 655.48045,500.33398 623.67576,262.71094 C 622.56283,261.65806 621.7969,260.93351 621.39842,260.55664 Z" /><path
     id="path8"
     style="baseline-shift:baseline;display:inline;overflow:hidden;vector-effect:none;fill:#631d76;stroke:none;enable-background:accumulate;stop-color:#000000;fill-opacity:1"
     d="M 623.2288,259.36884 411.81474,396.44695 509.67607,408.31023 C 501.32375,431.82346 486.1098,471.67249 465.68193,512.74578 449.77805,544.72291 429.87413,576.66808 409.6331,601.38836 389.39207,626.10863 368.15234,642.96206 354.28349,646.80437 351.01611,647.70959 350.09554,647.66883 347.56669,646.82976 345.03784,645.9907 340.70745,643.57935 334.3831,638.5407 322.61106,629.16187 306.79293,610.54063 290.47099,590.26726 274.14041,569.9832 256.62393,547.43917 234.39091,529.11883 211.72583,510.44246 179.89003,495.06551 144.39677,502.68719 95.56078,513.17394 54.35139,546.0698 17.09599,585.17351 13.1872,589.27623 9.3175002,593.46704 5.4885702,597.73601 10.90321,630.19318 18.34606,662.70567 30.96318,692.87273 45.33276,673.83383 60.15903,655.95107 75.01591,640.35711 106.58201,607.22494 139.3357,585.59874 161.18974,580.90594 164.29786,580.23851 165.86359,580.30474 169.05693,581.49187 172.25026,582.67901 177.0306,585.51311 183.51591,590.85711 195.87016,601.0372 211.74316,620.04831 228.15653,640.43523 244.5611,660.81121 262.06493,683.21174 284.53153,701.11101 307.08616,719.0804 339.03672,732.95718 373.33232,724.445 H 373.67607 L 375.63896,723.90008 H 375.64091 C 454.90558,701.9401 502.1428,619.07751 537.30888,548.37078 558.17538,506.41555 573.91149,466.06044 583.31669,439.99187 L 655.70536,502.01726 Z"
     sodipodi:nodetypes="cccsssssssssccssssssccccsccc" /></svg>
