<?xml version="1.0" encoding="UTF-8" standalone="no"?>
<svg
   class="svg-icon"
   style="width: 1em; height: 1em;vertical-align: middle;fill: currentColor;overflow: hidden;"
   viewBox="0 0 1024 1024"
   version="1.1"
   id="svg7"
   sodipodi:docname="settings.svg"
   inkscape:version="1.4.3 (0d15f75, 2025-12-25)"
   xmlns:inkscape="http://www.inkscape.org/namespaces/inkscape"
   xmlns:sodipodi="http://sodipodi.sourceforge.net/DTD/sodipodi-0.dtd"
   xmlns="http://www.w3.org/2000/svg"
   xmlns:svg="http://www.w3.org/2000/svg">
  <defs
     id="defs7">
    <inkscape:path-effect
       effect="fillet_chamfer"
       id="path-effect2"
       is_visible="true"
       lpeversion="1"
       nodesatellites_param="F,0,0,1,0,0,0,1 @ F,0,0,1,0,0,0,1 @ F,0,0,1,0,0,0,1 @ F,0,0,1,0,0,0,1 @ F,0,0,1,0,0,0,1 @ F,0,0,1,0,0,0,1 @ F,0,0,1,0,0,0,1 @ F,0,0,1,0,0,0,1 @ F,0,0,1,0,0,0,1 @ F,0,0,1,0,4.8092314,0,1 @ F,0,0,1,0,5.52,0,1 @ F,0,0,1,0,0,0,1 @ F,0,0,1,0,0,0,1 @ F,0,0,1,0,0,0,1 @ F,0,0,1,0,0,0,1 @ F,0,0,1,0,0,0,1 @ F,0,0,1,0,0,0,1 @ F,0,0,1,0,0,0,1 @ F,0,0,1,0,0,0,1 @ F,0,0,1,0,0,0,1 @ F,0,0,1,0,4.6934083,0,1 @ F,0,0,1,0,6.3333202,0,1 @ F,0,0,1,0,0,0,1 | F,0,0,1,0,0,0,1 @ F,0,0,1,0,0,0,1 @ F,0,0,1,0,0,0,1 @ F,0,0,1,0,0,0,1 @ F,0,0,1,0,0,0,1 @ F,0,0,1,0,0,0,1 @ F,0,0,1,0,0,0,1 @ F,0,0,1,0,0,0,1"
       radius="0"
       unit="px"
       method="auto"
       mode="F"
       chamfer_steps="1"
       flexible="false"
       use_knot_distance="true"
       apply_no_radius="true"
       apply_with_radius="true"
       only_selected="false"
       hide_knots="false" />
    <rect
       x="323.12295"
       y="339.90856"
       width="302.14094"
       height="440.62221"
       id="rect2" />
    <rect
       x="341.70632"
       y="345.211"
       width="348.71568"
       height="497.66459"
       id="rect1" />
  </defs>
  <sodipodi:namedview
     id="namedview7"
     pagecolor="#ffffff"
     bordercolor="#000000"
     borderopacity="0.25"
     inkscape:showpageshadow="2"
     inkscape:pageopacity="0.0"
     inkscape:pagecheckerboard="0"
     inkscape:deskcolor="#d1d1d1"
     inkscape:zoom="0.34464163"
     inkscape:cx="612.23016"
     inkscape:cy="554.19886"
     inkscape:window-width="1512"
     inkscape:window-height="851"
     inkscape:window-x="0"
     inkscape:window-y="33"
     inkscape:window-maximized="0"
     inkscape:current-layer="svg7" />
  <path
     id="path3"
     style="overflow:hidden;fill:#ffffff;fill-opacity:1;stroke:none;stroke-width:60;stroke-dasharray:none;stroke-opacity:1"
     d="M 512 17.410156 A 494.59061 494.59058 0 0 0 17.410156 512 A 494.59061 494.59058 0 0 0 512 1006.5898 A 494.59061 494.59058 0 0 0 1006.5898 512 A 494.59061 494.59058 0 0 0 512 17.410156 z M 462.62305 215.80469 L 561.37109 215.80469 L 561.37109 278.2832 C 583.78179 283.00315 605.04735 290.86816 624.68359 301.39062 L 664.88672 253.48438 L 740.53125 316.95508 L 700.29492 364.90234 C 714.13533 382.52059 725.54797 402.12358 734.05469 423.20703 L 795.60938 412.35156 L 812.76172 509.59961 L 751.19727 520.45508 C 750.43855 543.55198 746.39032 565.8334 739.50977 586.83984 L 793.62695 618.08594 L 744.25391 703.60742 L 690.02734 672.29297 C 674.98646 689.03471 657.62994 703.63903 638.46484 715.61328 L 659.86914 774.41797 L 567.07812 808.19531 L 545.70508 749.46875 C 534.68893 751.03149 523.43779 751.85352 511.99805 751.85352 C 500.55831 751.85352 489.30912 751.02696 478.29297 749.46875 L 456.91602 808.19141 L 364.12109 774.42188 L 385.52734 715.61914 C 366.35999 703.64489 349.00109 689.03964 333.96484 672.30469 L 279.73828 703.60938 L 230.36133 618.0918 L 284.48242 586.84766 C 277.60176 565.83442 273.55169 543.55815 272.79297 520.45898 L 211.23828 509.60352 L 228.38281 412.35547 L 289.93555 423.21094 C 298.44228 402.12975 309.8552 382.52254 323.69336 364.9043 L 283.46094 316.95703 L 359.10742 253.48438 L 399.30859 301.39062 C 418.94708 290.86815 440.21021 283.00315 462.62305 278.2832 L 462.62305 215.80469 z M 511.99414 386.39258 C 442.45882 386.39258 385.88672 442.96695 385.88672 512.5 C 385.88672 582.03758 442.45882 638.60547 511.99414 638.60547 C 581.5317 638.60547 638.09961 582.03758 638.09961 512.5 C 638.09961 442.96695 581.52945 386.39258 511.99414 386.39258 z " />
</svg>
